<svg xmlns="http://www.w3.org/2000/svg" width="20" height="20" viewBox="0 0 20 20"><defs><clipPath id="aqdka"><path fill="#fff" d="M10 1a9 9 0 1 1 0 18 9 9 0 0 1 0-18z"/></clipPath></defs><g><g><g><path fill="#fff" d="M10 1a9 9 0 1 1 0 18 9 9 0 0 1 0-18z"/><path fill="none" stroke="#666" stroke-linecap="round" stroke-linejoin="round" stroke-miterlimit="20" stroke-width="2" d="M10 1a9 9 0 1 1 0 18 9 9 0 0 1 0-18z" clip-path="url(&quot;#aqdka&quot;)"/></g><g><path fill="#666" d="M6 6.94L6.94 6l3.061 3.079L13.06 6.02l.94.94-3.061 3.06 3.02 3.038-.941.94-3.02-3.037L6.961 14l-.94-.94 3.04-3.04z"/></g></g></g></svg>